HIERARCHY
ROOT Hips
{
	OFFSET	0.00	0.00	0.00
	CHANNELS 6 Xposition Yposition Zposition Zrotation Xrotation Yrotation
	JOINT LeftUpLeg
	{
		OFFSET	 0.126116	-0.014019	-0.065224
		CHANNELS 3 Zrotation Xrotation Yrotation
		JOINT LeftLeg
		{
			OFFSET	 0.000000	 0.000000	 0.569914
			CHANNELS 3 Zrotation Xrotation Yrotation
			JOINT LeftFoot
			{
				OFFSET	 0.000000	 0.000000	 0.544423
				CHANNELS 3 Zrotation Xrotation Yrotation
				JOINT LeftToeBase
				{
					OFFSET	 0.000000	 0.000000	 0.207117
					CHANNELS 3 Zrotation Xrotation Yrotation
					End Site
					{
						OFFSET	 0.000000	 0.000000	 0.207117
					}
				}
			}
		}
	}
	JOINT RightUpLeg
	{
		OFFSET	-0.124023	-0.008373	-0.065224
		CHANNELS 3 Zrotation Xrotation Yrotation
		JOINT RightLeg
		{
			OFFSET	 0.000000	 0.000000	 0.570047
			CHANNELS 3 Zrotation Xrotation Yrotation
			JOINT RightFoot
			{
				OFFSET	 0.000000	 0.000000	 0.544354
				CHANNELS 3 Zrotation Xrotation Yrotation
				JOINT RightToeBase
				{
					OFFSET	 0.000000	 0.000000	 0.207540
					CHANNELS 3 Zrotation Xrotation Yrotation
					End Site
					{
						OFFSET	 0.000000	 0.000000	 0.207540
					}
				}
			}
		}
	}
	JOINT Spine
	{
		OFFSET	 0.000184	-0.007763	 0.117403
		CHANNELS 3 Zrotation Xrotation Yrotation
		JOINT Spine1
		{
			OFFSET	 0.000000	 0.000000	 0.137269
			CHANNELS 3 Zrotation Xrotation Yrotation
			JOINT Spine2
			{
				OFFSET	 0.000000	 0.000000	 0.156879
				CHANNELS 3 Zrotation Xrotation Yrotation
				JOINT LeftShoulder
				{
					OFFSET	 0.080501	-0.002496	 0.160144
					CHANNELS 3 Zrotation Xrotation Yrotation
					JOINT LeftArm
					{
						OFFSET	 0.000000	 0.000000	 0.164363
						CHANNELS 3 Zrotation Xrotation Yrotation
						JOINT LeftForeArm
						{
							OFFSET	 0.000000	 0.000000	 0.364576
							CHANNELS 3 Zrotation Xrotation Yrotation
							JOINT LeftHand
							{
								OFFSET	 0.000000	 0.000000	 0.360812
								CHANNELS 3 Zrotation Xrotation Yrotation
								JOINT LeftHandIndex1
								{
									OFFSET	 0.000000	 0.000000	 0.086006
									CHANNELS 3 Zrotation Xrotation Yrotation
									JOINT LeftHandIndex2
									{
										OFFSET	 0.000000	 0.000000	 0.047236
										CHANNELS 3 Zrotation Xrotation Yrotation
										JOINT LeftHandIndex3
										{
											OFFSET	-0.004284	-0.000551	 0.038166
											CHANNELS 3 Zrotation Xrotation Yrotation
											End Site
											{
												OFFSET	-0.004284	-0.000551	 0.038166
											}
										}
									}
								}
							}
						}
					}
				}
				JOINT Neck
				{
					OFFSET	 0.000000	 0.000000	 0.176489
					CHANNELS 3 Zrotation Xrotation Yrotation
					JOINT Head
					{
						OFFSET	 0.000000	-0.001747	 0.077940
						CHANNELS 3 Zrotation Xrotation Yrotation
						End Site
						{
							OFFSET	 0.000000	-0.001747	 0.077940
						}
					}
				}
				JOINT RightShoulder
				{
					OFFSET	-0.080363	 0.000306	 0.159706
					CHANNELS 3 Zrotation Xrotation Yrotation
					JOINT RightArm
					{
						OFFSET	 0.000000	 0.000000	 0.164196
						CHANNELS 3 Zrotation Xrotation Yrotation
						JOINT RightForeArm
						{
							OFFSET	 0.000000	 0.000000	 0.365611
							CHANNELS 3 Zrotation Xrotation Yrotation
							JOINT RightHand
							{
								OFFSET	 0.000000	 0.000000	 0.360648
								CHANNELS 3 Zrotation Xrotation Yrotation
								JOINT RightHandIndex1
								{
									OFFSET	 0.000000	 0.000000	 0.069977
									CHANNELS 3 Zrotation Xrotation Yrotation
									JOINT RightHandIndex2
									{
										OFFSET	 0.000000	 0.000000	 0.052305
										CHANNELS 3 Zrotation Xrotation Yrotation
										JOINT RightHandIndex3
										{
											OFFSET	 0.009002	-0.000782	 0.042196
											CHANNELS 3 Zrotation Xrotation Yrotation
											End Site
											{
												OFFSET	 0.009002	-0.000782	 0.042196
											}
										}
									}
								}
							}
						}
					}
				}
			}
		}
	}
}
MOTION
Frames:    13
Frame Time: 0.03333334
 0.011444	 0.047240	 1.196459	 5.460647	-1.009844	-3.501496	 9.723442	-11.757760	-173.483700	 1.155019	-40.364960	 0.519629	 61.510950	 82.256100	-65.631200	-2.368984	 31.683840	-0.071487	-16.625630	-32.796240	-175.440700	 11.751790	-52.013520	 9.919033	 22.859270	 81.435370	-18.916510	 2.358959	 33.001820	 0.103272	-1.267876	 8.501314	 0.978081	 1.064438	 2.503601	 2.590547	-6.687446	-2.705537	-3.097081	-94.042090	 58.969980	 175.166500	 15.395230	 33.052730	-38.080640	-1.978449	-0.042549	-0.768704	 1.440348	-5.788652	-7.833384	-4.867282	 19.316770	-2.795797	-3.873778	 21.571770	 2.194879	-4.805160	 5.581993	 0.144832	-0.053086	-5.094664	 0.211064	-8.537299	 1.915350	 2.113045	 89.741550	 61.712160	 179.903100	-19.250390	 51.953490	 8.406869	-1.347618	-2.508927	 13.346990	-5.044821	 9.461249	 0.436805	 6.283745	 24.079980	-0.544221	 1.980605	 43.920160	-7.077700	 0.685534	 23.573200	 3.488353
 0.010613	 0.026492	 1.192578	 6.125726	-0.347684	-3.587412	 9.328559	-11.694890	-173.617600	 1.451089	-40.939220	 0.719771	 67.526480	 82.864240	-71.847450	-2.367589	 31.912380	-0.076678	-18.883310	-35.254190	-176.356000	 12.393850	-49.724810	 10.107960	 51.681250	 85.095830	-48.957200	 2.359409	 32.935390	 0.101726	-2.328114	 8.036190	 0.881938	 1.040605	 2.385391	 2.780496	-6.818836	-2.791413	-3.166367	-94.218990	 58.993290	 174.786200	 14.695250	 31.523560	-38.501720	-2.677131	-0.031587	-0.973293	 1.938652	-6.183101	-8.282837	-4.859662	 19.504920	-2.806829	-3.862783	 21.711880	 2.183700	-4.801855	 5.620958	 0.142551	-0.019463	-5.127018	 0.264313	-8.551126	 1.884259	 2.013427	 89.664460	 61.839380	 179.717500	-18.845240	 52.697340	 6.839658	-1.628958	-2.676727	 14.065920	-5.262842	 9.982014	 0.083384	 6.264400	 22.761020	-0.568118	 2.126241	 42.677730	-7.206473	 0.971866	 22.287240	 3.348750
 0.009398	-0.021745	 1.184990	 6.566722	 0.527914	-4.106951	 9.228264	-10.043890	-173.768000	 1.709292	-41.035180	 0.890717	 82.160700	 83.951140	-86.557350	-2.361922	 32.798100	-0.096991	-19.865430	-38.684430	-177.462700	 12.019870	-42.836070	 8.765578	 97.351200	 84.649800	-96.328390	 2.357052	 33.279230	 0.109724	-3.886038	 7.193382	 1.162731	 0.998983	 3.030555	 2.925935	-6.952971	-3.159502	-3.248471	-94.430440	 58.972770	 174.338800	 12.533140	 28.477670	-39.600500	-4.483404	 0.000843	-1.356484	 1.707035	-6.910033	-7.508958	-4.834744	 20.040420	-2.821711	-3.835458	 22.057660	 2.155950	-4.781446	 5.861078	 0.128435	 0.010407	-5.236111	 0.332275	-8.592858	 1.810524	 1.948326	 89.492930	 62.012700	 179.301400	-17.845840	 53.981690	 4.203055	-2.742678	-2.912094	 14.330410	-5.861434	 10.837200	-1.503971	 6.215164	 20.030620	-0.669643	 2.411813	 40.063580	-7.456030	 1.572031	 19.501730	 3.073940
 0.006842	-0.080408	 1.174615	 6.890129	 0.750836	-4.512338	 8.965457	-6.981441	-174.417700	 1.996290	-40.689960	 1.071718	 92.608780	 84.920440	-96.935120	-2.342246	 35.455030	-0.159874	-19.299520	-40.332380	-178.083400	 11.367180	-34.095680	 6.867298	 108.553500	 82.847530	-108.780500	 2.338180	 35.740650	 0.168494	-5.876294	 6.994511	 1.415379	 0.934625	 3.685066	 2.995821	-6.981248	-3.589649	-3.299944	-94.534480	 58.910530	 174.127300	 9.675590	 25.984510	-40.544720	-5.675145	 0.041807	-1.789496	 1.244183	-7.768874	-7.470070	-4.839409	 20.454310	-2.971570	-3.797393	 22.534290	 2.117288	-4.735684	 6.396222	 0.096643	 0.088343	-5.373136	 0.353642	-8.501203	 1.791340	 1.669005	 89.372370	 61.991730	 179.010900	-16.126180	 54.937490	 1.315779	-3.890049	-2.837750	 13.427570	-5.941526	 10.911200	-3.497895	 6.168248	 16.866350	-0.703292	 2.803432	 36.050620	-7.790875	 2.220561	 16.359310	 2.805791
 0.000310	-0.144463	 1.157825	 7.303560	 0.535527	-4.021501	 8.397532	-3.649674	-176.401000	 2.446840	-41.229450	 1.380533	 58.753890	 85.744950	-62.568750	-2.249488	 43.759160	-0.381439	-18.576910	-43.488300	-179.413700	 9.516118	-30.208230	 5.211038	 24.732840	 80.812070	-22.918830	 2.339427	 35.591750	 0.164862	-8.566051	 7.016872	 0.989115	 0.984134	 4.614197	 2.944751	-7.003972	-4.005097	-3.401854	-94.497590	 59.259110	 174.148200	 7.091010	 24.555120	-41.747940	-6.809194	 0.105507	-2.318296	 0.430295	-9.324220	-8.238332	-4.882711	 20.639500	-3.279456	-3.761177	 22.982280	 2.080512	-4.660331	 7.268753	 0.043803	 0.206978	-5.479599	 0.266300	-8.237599	 1.922993	 1.526678	 89.355240	 61.581600	 178.984700	-14.256810	 55.276340	-2.424959	-4.522186	-2.970578	 14.132590	-6.077575	 10.168400	-5.137567	 6.214204	 13.371400	-0.276409	 3.056661	 33.158130	-8.001924	 2.888681	 12.988290	 2.563148
-0.007709	-0.206316	 1.140089	 8.230085	-0.316091	-2.864009	 8.543386	 0.140825	-179.646500	 0.340968	-41.539280	-0.007796	 10.653480	 79.697430	-10.982410	-2.014935	 54.730250	-0.774612	-15.184680	-46.842230	-179.177200	 6.830431	-31.614680	 3.994787	-5.594108	 67.034170	 13.686550	 2.336003	 35.997590	 0.174792	-11.378230	 7.262407	-0.142749	 0.918776	 6.104862	 2.980338	-7.132209	-4.407884	-3.690219	-94.409380	 59.155570	 174.354400	 5.727233	 23.061330	-43.108930	-8.209297	 0.185336	-2.822689	 0.019666	-8.797856	-8.041777	-4.895807	 20.862590	-3.429646	-3.739698	 23.245360	 2.058711	-4.583801	 8.143489	-0.010446	 0.338612	-5.431698	 0.273147	-8.021546	 2.227481	 1.925175	 89.256760	 61.410780	 178.758300	-12.970380	 55.306190	-4.755836	-4.348144	-2.927932	 14.900930	-6.655960	 9.369823	-5.117863	 6.321865	 10.462950	 0.286354	 3.259179	 30.657940	-8.167053	 3.350105	 10.588570	 2.416699
-0.018720	-0.296016	 1.122058	 10.199460	-1.346417	-1.318584	 9.374353	 6.112243	 175.372100	 1.250469	-38.769180	 0.562183	-0.186276	 57.916550	 4.851882	-1.052477	 70.711240	-1.952304	-16.298540	-46.872400	 178.833800	 8.264325	-32.867300	 4.925044	-7.516289	 52.495880	 18.007670	 2.350636	 34.170100	 0.130684	-15.089820	 7.464042	-1.178029	 0.167546	 7.279830	 1.961669	-7.436567	-4.528705	-3.505088	-94.235130	 59.380850	 174.693200	 5.457007	 21.755830	-44.004050	-8.935973	 0.298960	-3.444295	 0.761181	-6.684870	-8.490320	-4.817650	 21.274090	-3.104121	-3.673897	 24.039980	 1.991935	-4.508093	 8.997632	-0.064687	 0.395781	-5.339327	 0.236463	-7.984109	 2.790066	 2.134228	 89.025860	 60.822470	 178.248400	-11.803720	 54.638350	-6.460050	-2.274324	-2.359132	 15.647710	-6.193820	 8.371682	-3.183781	 6.371952	 8.633081	 0.514074	 3.390480	 28.941930	-8.272156	 3.648582	 9.008442	 2.331572
-0.028925	-0.382253	 1.109477	 9.590407	-1.889081	 0.101200	 18.641870	 8.693278	 167.292600	 0.852350	-39.292550	 0.316405	 1.373168	 40.166220	 12.118590	-2.180347	 47.884980	-0.511571	-19.216120	-43.767910	 174.534800	 6.484476	-35.197770	 4.189420	-5.856045	 51.731960	 18.570900	 2.371046	 31.070400	 0.059133	-16.819120	 7.716481	-1.998522	-0.669613	 6.567506	 1.022158	-7.366765	-4.014718	-3.306812	-94.068920	 59.818440	 174.987300	 5.784385	 22.181830	-43.033400	-8.377310	 0.416269	-4.016836	 1.647441	-5.755970	-8.562349	-4.750596	 21.663830	-2.825052	-3.599709	 24.915770	 1.916676	-4.446931	 9.679461	-0.108903	 0.305037	-5.392414	 0.175812	-8.087612	 2.990217	 2.265816	 89.049050	 60.265510	 178.333000	-11.575510	 53.885070	-7.692080	 0.209128	-1.747572	 16.763970	-5.012610	 6.723167	-1.446986	 6.403602	 9.620109	 0.635025	 3.328918	 29.756100	-8.223079	 3.610859	 9.209269	 2.341904
-0.040337	-0.490209	 1.101882	 7.150180	-2.826889	 1.282748	 25.520520	 7.960032	 160.437000	-3.401248	-45.334970	-2.671819	 5.672852	 42.494850	 9.321725	-2.381290	 29.428820	-0.021235	-19.527940	-42.225660	 171.644300	 6.333932	-43.176760	 4.865824	-6.749094	 59.051830	 20.378980	 2.374327	 30.485560	 0.046025	-17.017480	 8.449449	-2.819233	-1.090152	 4.655605	 0.738344	-6.921955	-2.900732	-3.187991	-93.983120	 59.456370	 175.226100	 6.523219	 23.023000	-40.691360	-8.398576	 0.584375	-4.675233	 1.232868	-5.955687	-7.638350	-4.651632	 23.004280	-2.640009	-3.514199	 25.899470	 1.829981	-4.330867	 10.953170	-0.193762	 0.161940	-5.337704	 0.100551	-8.213850	 2.897822	 2.299701	 89.348310	 60.346180	 179.010800	-12.421580	 53.832470	-6.590137	 2.964296	-0.610225	 14.763770	-3.620620	 4.736271	-0.027826	 6.389159	 12.406220	 0.555101	 3.069863	 33.000320	-8.012793	 3.280232	 10.955410	 2.437726
-0.049918	-0.587003	 1.102313	 5.702869	-3.447831	 1.412154	 22.003430	 5.836348	 160.570100	-4.310962	-56.272120	-3.881349	 1.705497	 58.048390	 11.066210	-2.379928	 29.703910	-0.027270	-19.760840	-40.992860	 171.480900	 5.741648	-51.165860	 5.071480	-7.811759	 67.645160	 22.007410	 2.374309	 30.487550	 0.046077	-16.905630	 8.971983	-2.783277	-1.143037	 2.554261	 0.635518	-6.608632	-1.706777	-2.774459	-93.826870	 59.611180	 175.543600	 8.105073	 24.902140	-38.538010	-7.524436	 0.756159	-5.274333	 0.852049	-4.813573	-6.559515	-4.591521	 23.887050	-2.539576	-3.439418	 26.737950	 1.754197	-4.207216	 12.281210	-0.285474	 0.017085	-5.187754	-0.019372	-8.328248	 2.783646	 2.075746	 89.537300	 59.936400	 179.449100	-14.221720	 53.492940	-3.586304	 6.497065	 0.375016	 12.509920	-2.217738	 2.135288	 0.441444	 6.373446	 15.399190	 0.445908	 2.869644	 35.318240	-7.846503	 2.822395	 13.328420	 2.585631
-0.056689	-0.683086	 1.107520	 4.285839	-3.790267	 1.230368	 16.223790	 0.637615	 164.436000	-1.842903	-69.249920	-2.053324	-13.793540	 73.841770	 24.283520	-2.370392	 31.447740	-0.066144	-19.761370	-38.149220	 172.087200	 4.301818	-56.329060	 4.214270	-10.832260	 75.270390	 25.575310	 2.374297	 30.490400	 0.046137	-16.106060	 9.228923	-2.671525	-0.970164	 1.746051	 0.823965	-6.406225	-1.239703	-2.628260	-93.699460	 59.990710	 175.772500	 10.261370	 27.643120	-36.913480	-5.863875	 0.943884	-5.862566	 0.930160	-2.217282	-4.712382	-4.562688	 24.662560	-2.620860	-3.379909	 27.390940	 1.693918	-4.129927	 13.096160	-0.343456	-0.165219	-4.967834	-0.089159	-8.537205	 2.519802	 2.130555	 89.638240	 59.772560	 179.677900	-16.405960	 52.370830	 0.340224	 9.959357	 1.079992	 15.516540	-1.491250	 1.235438	 1.175645	 6.379450	 17.808340	 0.440731	 2.649401	 37.692300	-7.660298	 2.372177	 15.605780	 2.747657
-0.061251	-0.789141	 1.123196	 2.517209	-3.617958	 1.091280	 14.778590	-11.370930	 168.032600	-7.151244	-81.666500	-7.425616	-106.882300	 83.441960	 115.552100	-2.376562	 30.352450	-0.041611	-18.768170	-32.988780	 173.319800	 1.518157	-57.989410	 1.930293	-17.466850	 81.908980	 32.648520	 2.370917	 31.092110	 0.059623	-14.683120	 9.096336	-2.796000	-0.410257	 1.944982	 1.432312	-6.181899	-1.488962	-2.846387	-93.421370	 60.283150	 176.350700	 13.062740	 31.812360	-35.343030	-4.083629	 1.187182	-6.532615	 2.113418	-0.220963	-2.009873	-4.525062	 25.464000	-2.656087	-3.324913	 27.983720	 1.638219	-4.084813	 13.566480	-0.377521	-0.356850	-4.789602	-0.171053	-8.726336	 2.076347	 2.595713	 89.904480	 60.100480	-179.723200	-18.759550	 49.290570	 9.958629	 14.003200	 1.835682	 13.518310	-1.585920	 1.674917	 2.182750	 6.376078	 19.771000	 0.381782	 2.464476	 39.554100	-7.501588	 2.021353	 17.338700	 2.884847
-0.060802	-0.900907	 1.145942	 0.705277	-2.701297	 0.042814	 19.748070	-23.333140	 173.125500	-17.524230	-79.778420	-17.670860	-159.999200	 80.920560	 165.796600	-2.382661	 29.143630	-0.014999	-16.209990	-27.236320	 176.114500	-0.179615	-56.247940	 0.480846	-38.196110	 86.150150	 53.279260	 2.364157	 32.210380	 0.085002	-12.718330	 8.540009	-1.902049	 0.685650	 1.707518	 1.599142	-5.917419	-1.666300	-2.745647	-93.109540	 60.224860	 177.047500	 16.282120	 36.952840	-32.843690	-3.420214	 1.462848	-7.182850	 3.225596	 2.088743	-0.166365	-4.450528	 26.810090	-2.634509	-3.221916	 29.066620	 1.533961	-4.004822	 14.390880	-0.438332	-0.471654	-4.798906	-0.184678	-8.871001	 1.860387	 2.651999	 90.126420	 60.540790	-179.209900	-19.464870	 44.564800	 21.109660	 17.529320	 1.569002	 7.200174	-2.264717	 2.225820	 4.437625	 6.390845	 20.013860	 0.472110	 2.417198	 40.011970	-7.460692	 1.945656	 17.707630	 2.915666
